<!-- Generator: Adobe Illustrator 16.0.0, SVG Export Plug-In . SVG Version:
6.00 Build 0) -->
<svg contentScriptType="text/ecmascript" zoomAndPan="magnify"
     xmlns:xlink="http://www.w3.org/1999/xlink" contentStyleType="text/css"
     id="Outline_Version" enable-background="new 0 0 24 24" version="1.1"
     xml:space="preserve" width="24px" preserveAspectRatio="xMidYMid meet"
     viewBox="0 0 24 24" height="24px" xmlns="http://www.w3.org/2000/svg"
     x="0px" y="0px">
    <g fill="#3e3832">
        <g>
            <path d="M7.5,22.25c-0.128,0-0.256-0.049-0.354-0.146l-7-7c-0.195-0.195-0.195-0.512,0-0.707l3.5-3.5    c0.195-0.195,0.512-0.195,0.707,0L7.5,14.043L19.646,1.896c0.195-0.195,0.512-0.195,0.707,0l3.5,3.5    c0.195,0.195,0.195,0.512,0,0.707l-16,16C7.756,22.201,7.628,22.25,7.5,22.25z M1.207,14.75L7.5,21.043L22.793,5.75L20,2.957    L7.854,15.104c-0.195,0.195-0.512,0.195-0.707,0L4,11.957L1.207,14.75z"/>
        </g>
    </g>
</svg>