
<!-- Generator: Adobe Illustrator 16.0.0, SVG Export Plug-In . SVG Version:
6.00 Build 0) -->
<svg contentScriptType="text/ecmascript" zoomAndPan="magnify"
     xmlns:xlink="http://www.w3.org/1999/xlink" contentStyleType="text/css"
     id="Filled_Version" enable-background="new 0 0 24 24" version="1.1"
     xml:space="preserve" width="24px" preserveAspectRatio="xMidYMid meet"
     viewBox="0 0 24 24" height="24px" xmlns="http://www.w3.org/2000/svg"
     x="0px" y="0px">
    <g fill="#0067C5">
        <circle fill="#0067C5" r="0.5" cx="3.5" cy="11.5"/>
        <path fill="#0067C5"
              d="M21.5,8h-19C1.121,8,0,9.122,0,10.5v6C0,17.878,1.121,19,2.5,19H5v4.5C5,23.776,5.224,24,5.5,24h13   c0.275,0,0.5-0.224,0.5-0.5V19h2.5c1.378,0,2.5-1.122,2.5-2.5v-6C24,9.122,22.878,8,21.5,8z M3.5,13C2.673,13,2,12.327,2,11.5   S2.673,10,3.5,10C4.326,10,5,10.673,5,11.5S4.326,13,3.5,13z M18,23H6v-7h12V23z"/>
        <path fill="#0067C5"
              d="M5.5,7h13C18.775,7,19,6.776,19,6.5v-1c0-0.133-0.053-0.26-0.146-0.354l-3-3C15.76,2.053,15.633,2,15.5,2h-10   C5.224,2,5,2.224,5,2.5v4C5,6.776,5.224,7,5.5,7z M15.5,2.5l3,3h-3V2.5z"/>
        <path fill="#0067C5"
              d="M7.5,18h9c0.275,0,0.5-0.224,0.5-0.5c0-0.276-0.225-0.5-0.5-0.5h-9C7.224,17,7,17.224,7,17.5C7,17.776,7.224,18,7.5,18z"/>
        <path fill="#0067C5"
              d="M7.5,20h9c0.275,0,0.5-0.224,0.5-0.5c0-0.276-0.225-0.5-0.5-0.5h-9C7.224,19,7,19.224,7,19.5C7,19.776,7.224,20,7.5,20z"/>
        <path fill="#0067C5"
              d="M7.5,22h9c0.275,0,0.5-0.224,0.5-0.5c0-0.276-0.225-0.5-0.5-0.5h-9C7.224,21,7,21.224,7,21.5C7,21.776,7.224,22,7.5,22z"/></g></svg>