<svg id="Layer_1" data-name="Layer 1" xmlns="http://www.w3.org/2000/svg"
     viewBox="0 0 300 141">
    <defs>
        <style>
            .cls-1{fill:#fff;}.cls-2{mask:url(#mask);}.cls-3{fill:#e57f68;}.cls-4{mask:url(#mask-2-2);}.cls-5{fill:#3e3832;}.cls-6{fill:#e7e5e2;}.cls-7{fill:#d8a25d;}.cls-8{mask:url(#mask-3);}.cls-9{fill:#669db4;}.cls-10{fill:#635e59;}.cls-11,.cls-12,.cls-14,.cls-16{fill:none;}.cls-11{stroke:#d1bfa3;}.cls-11,.cls-12,.cls-14{stroke-linecap:round;}.cls-12{stroke:#d19e9c;}.cls-13{fill:#37373a;}.cls-14{stroke:#abb2ba;stroke-width:1.8px;}.cls-15{fill:#abb2ba;}.cls-16{stroke:#9bd0b0;stroke-width:1.03px;}.cls-17{fill:#9bd0b0;}.cls-18{fill:#6ab889;}.cls-19{mask:url(#mask-7);}.cls-20{fill:#50808b;}
        </style>
        <mask id="mask" x="0" y="0" width="300" height="141" maskUnits="userSpaceOnUse">
            <g id="mask-2">
                <rect id="path-1" class="cls-1" width="300" height="141"/>
            </g>
        </mask>
        <mask id="mask-2-2" x="93.03" y="11.24" width="98" height="112" maskUnits="userSpaceOnUse">
            <g id="mask-4">
                <path id="path-3" class="cls-1"
                      d="M179.61,56.43h-.08c0-23.4-17-42.37-38.05-42.37s-38,19-38,42.37v0c0,20-10.41,31.4-10.41,31.4s10.27,12.48,48.46,12.48h.07c38.19,0,48.46-12.48,48.46-12.48s-10.41-11.43-10.41-31.42"/>
            </g>
        </mask>
        <mask id="mask-3" x="55.91" y="49.54" width="180" height="141" maskUnits="userSpaceOnUse">
            <g id="mask-6">
                <path id="path-5" class="cls-1"
                      d="M158.12,89.36c8.55,4.16,21.85,15.45,21.85,25.92v34.58H103V115.28c0-10.1,12.16-21,20.62-25.46-.43.26-.66.42-.66.42,1.46,2.39,5.37,13,17.65,13s18-11.38,18-13.61C158.43,89.53,158.28,89.44,158.12,89.36Z"/>
            </g>
        </mask>
        <mask id="mask-7" x="44.06" y="120.59" width="32.82" height="20.3" maskUnits="userSpaceOnUse">
            <g id="mask-8">
                <polygon id="path-7" class="cls-1"
                         points="44.06 120.59 76.88 120.59 76.88 140.9 44.06 140.9 44.06 120.59"/>
            </g>
        </mask>
    </defs>
    <g id="pri-1--copy-6">
        <g id="Group-_-Group-103-_-Stroke-1-_-Group-17-Mask" data-name="Group-+-Group-103-+-Stroke-1-+-Group-17-Mask">
            <g class="cls-2">
                <g id="Group">
                    <g id="mennesker_NAV-ansatt_kvinne_-Frida" data-name="mennesker/NAV-ansatt/kvinne/-Frida">
                        <g id="mennesker_kvinne_-forfra_-B" data-name="mennesker/kvinne/-forfra/-B">
                            <g id="Group-2">
                                <g id="mennesker_kvinne_-hår_-halvlangt"
                                   data-name="mennesker/kvinne/⚙️/-hår/-halvlangt">
                                    <g id="hårfarge_-brunn" data-name="hårfarge/-brunn">
                                        <g id="Mask-8-2" data-name="Mask">
                                            <path id="path-3-2" data-name="path-3" class="cls-3"
                                                  d="M179.61,56.43h-.08c0-23.4-17-42.37-38.05-42.37s-38,19-38,42.37v0c0,20-10.41,31.4-10.41,31.4s10.27,12.48,48.46,12.48h.07c38.19,0,48.46-12.48,48.46-12.48s-10.41-11.43-10.41-31.42"/>
                                        </g>
                                        <g class="cls-4">
                                            <g id="mennesker_hårfarge_-sort" data-name="mennesker/⚙️/hårfarge/-sort">
                                                <g id="hårfarge_-sort" data-name="hårfarge/-sort">
                                                    <rect class="cls-5" x="93.03" y="11.24" width="98" height="112"/>
                                                </g>
                                            </g>
                                        </g>
                                    </g>
                                </g>
                                <g id="Group-2-2" data-name="Group">
                                    <path id="Combined-Shape" class="cls-6"
                                          d="M122.85,90.06C124.3,92.38,128.37,133,140.6,133s17.75-41.39,17.75-43.54C139.63,78.77,122.85,90.06,122.85,90.06Z"/>
                                    <g id="mennesker_kropp_forfra_-rund-hals"
                                       data-name="mennesker/⚙️/kropp/forfra/-rund-hals">
                                        <g id="Group-3" data-name="Group">
                                            <g id="_20_-Blå" data-name="+20/-Blå">
                                                <g id="Mask-9" data-name="Mask">
                                                    <path id="path-5-2" data-name="path-5" class="cls-7"
                                                          d="M158.12,89.36c8.55,4.16,21.85,15.45,21.85,25.92v25.58H103V115.28c0-10.1,12.16-21,20.62-25.46-.43.26-.66.42-.66.42,1.46,2.39,5.37,13,17.65,13s18-11.38,18-13.61C158.43,89.53,158.28,89.44,158.12,89.36Z"/>
                                                </g>
                                                <g class="cls-8">
                                                    <g id="_-60_-Murstein-rød" data-name="-60/-Murstein-rød">
                                                        <g id="_-40_-Dyp-blå" data-name="-40/-Dyp-blå">
                                                            <g id="Fill-23">
                                                                <polygon class="cls-9"
                                                                         points="55.91 190.54 235.91 190.54 235.91 49.54 55.91 49.54 55.91 190.54"/>
                                                            </g>
                                                        </g>
                                                    </g>
                                                </g>
                                            </g>
                                        </g>
                                    </g>
                                    <path id="Fill-337-Copy-7" class="cls-6"
                                          d="M112.26,53s-.15.85-.35.71a2.2,2.2,0,0,0-.86-.18A2.44,2.44,0,0,0,108.66,56v9.42A2.43,2.43,0,0,0,111,67.92a2.33,2.33,0,0,0,1.41-.48c3.19,15.18,14.56,25.9,28.11,25.92s25-10.66,28.19-25.83a2.32,2.32,0,0,0,1.41.49,2.43,2.43,0,0,0,2.39-2.46V56.13a2.43,2.43,0,0,0-2.38-2.47,2.2,2.2,0,0,0-.86.17c-30.57,3.61-41.23-17.11-42.13-17.11C127.18,36.72,114.39,48.65,112.26,53Z"/>
                                </g>
                                <g id="mennesker_kvinne_ansikt-forfra_-undrende"
                                   data-name="mennesker/kvinne/⚙️/ansikt-forfra/-undrende">
                                    <g id="Group-4" data-name="Group">
                                        <path id="Fill-75" class="cls-10"
                                              d="M131.3,59.44c-2,.11-2.62-2-2-3.43a2.46,2.46,0,0,1,2-1.47,2.16,2.16,0,0,1,1.8.77c.88,1.36.44,4-1.79,4.13"/>
                                        <path id="Fill-77" class="cls-10"
                                              d="M152.69,59.44c2,.11,2.61-2,2-3.43a2.48,2.48,0,0,0-2-1.47,2.14,2.14,0,0,0-1.8.77c-.88,1.36-.45,4,1.79,4.13"/>
                                        <path id="Stroke-79" class="cls-11"
                                              d="M143.24,63.15c1.22-.19,2.41-.14,3,.54,1.36,1.66,1,3.57-1.32,5a4.53,4.53,0,0,1-3.77.56"/>
                                        <path id="Stroke-81" class="cls-12" d="M133.8,77.12s1,1.19,3.94,1.17l2.9,0"/>
                                    </g>
                                </g>
                            </g>
                        </g>
                    </g>
                    <g id="mennesker_tilbehør_-briller" data-name="mennesker/tilbehør/-briller">
                        <path id="Fill-106" class="cls-13"
                              d="M123.3,58.11c0-3.39,3.23-6.15,7.2-6.15s7.2,2.76,7.2,6.15-3.23,6.14-7.2,6.14-7.2-2.75-7.2-6.14m23.19,0c0-3.39,3.23-6.15,7.2-6.15s7.2,2.76,7.2,6.15-3.23,6.14-7.2,6.14-7.2-2.75-7.2-6.14m-25.49,0c0,4.47,4.26,8.1,9.5,8.1,4.85,0,8.81-3.12,9.38-7.12h4.43c.57,4,4.54,7.12,9.38,7.12,5.24,0,9.5-3.63,9.5-8.1S158.93,50,153.69,50c-4.84,0-8.81,3.12-9.38,7.13h-4.43c-.57-4-4.53-7.13-9.38-7.13-5.24,0-9.5,3.64-9.5,8.11"/>
                    </g>
                    <circle id="Oval" class="cls-1" cx="204" cy="54" r="4"/>
                    <circle id="Oval-Copy-2" class="cls-1" cx="195.5" cy="59.5" r="2.5"/>
                    <circle id="Oval-Copy" class="cls-1" cx="190" cy="64" r="2"/>
                    <g id="snakkeboble-_-tanke" data-name="snakkeboble-/-tanke">
                        <path id="Fill-9" class="cls-1"
                              d="M267.1,34.7a11.5,11.5,0,0,0-14-16.69A4.75,4.75,0,0,0,248,15.19a4.24,4.24,0,0,0-1,.26,11.4,11.4,0,0,0-20.15,2,4.74,4.74,0,0,0-6.17,2.91,9.12,9.12,0,0,0-1.37.1,8.14,8.14,0,0,0-6,11.78,4.86,4.86,0,0,0-.9,2.31l-.23,0A6.89,6.89,0,0,0,211.53,48c0,.18,0,.36.05.54a4.85,4.85,0,0,0,.79,2A11.48,11.48,0,0,0,224.2,65.75a6.11,6.11,0,0,0,6.94,4.77,5.92,5.92,0,0,0,2.36-.9,4.76,4.76,0,0,0,8,.16,6,6,0,0,0,8.95-2.54,6.4,6.4,0,0,0,8.41-7h0a10.84,10.84,0,0,0,1.49-.13A11.49,11.49,0,0,0,268.51,43a4.75,4.75,0,0,0-1.41-8.26"/>
                    </g>
                </g>
            </g>
            <g class="cls-2">
                <g id="Group-103">
                    <path id="Stroke-69" class="cls-14"
                          d="M237,38.16A3.07,3.07,0,0,1,240.36,35,3.34,3.34,0,0,1,243,38.16a2.49,2.49,0,0,1-1.69,2.73s-2.55.21-1.57,3.44"/>
                    <path id="Fill-71" class="cls-15"
                          d="M238.2,47.83A1.2,1.2,0,1,1,239.4,49,1.18,1.18,0,0,1,238.2,47.83Z"/>
                </g>
            </g>
            <g class="cls-2">
                <path id="Stroke-1" class="cls-16" d="M60,93.5v38.79"/>
            </g>
            <g class="cls-2">
                <g id="Group-17">
                    <path id="Fill-2" class="cls-17"
                          d="M60.27,84.72c5.85-4.34,8.65-10.76,7.09-16a11.37,11.37,0,0,0-3.57-5.36,3.77,3.77,0,0,1-2.62-1.11,3.88,3.88,0,0,1-.9-3.45,14.26,14.26,0,0,0-8,13,13.49,13.49,0,0,0,8,13"/>
                    <path id="Fill-4" class="cls-18"
                          d="M60.27,84.72c5.85-4.34,8.65-10.76,7.09-16a11.37,11.37,0,0,0-3.57-5.36,3.77,3.77,0,0,1-2.62-1.11,3.88,3.88,0,0,1-.9-3.45,4.11,4.11,0,0,0-.09.85c.07,4.21.09,25.12.09,25.12"/>
                    <path id="Fill-6" class="cls-17"
                          d="M60.46,110.43c-1.21.75-5.64,3.31-10.69,2-6.28-1.58-11-8.46-10.76-16.77A16,16,0,0,1,55.75,98.6a16,16,0,0,1,4.71,11.83"/>
                    <path id="Fill-8" class="cls-18"
                          d="M60.46,110.5,39,95.77a16,16,0,0,1,16.73,2.91,16.05,16.05,0,0,1,4.72,11.82"/>
                    <path id="Fill-10" class="cls-17"
                          d="M60,99.11c.81-8.18,3.49-11.47,6-12.9,5.55-3.16,15.84-.32,15.84-.32l-1.66.88c.06.8.42,6.83-4.09,11C72,101.51,65.47,102.13,60,99.11"/>
                    <path id="Fill-12" class="cls-18"
                          d="M60,99.11c.81-8.18,3.49-11.47,6-12.9,5.55-3.16,15.84-.32,15.84-.32l-1.66.88C80.27,87.57,60,99.11,60,99.11"/>
                    <g id="Group-16">
                        <g class="cls-19">
                            <path id="Fill-14" class="cls-20"
                                  d="M76.88,120.59H44.06l3.59,18.51a2.21,2.21,0,0,0,2.17,1.79h21.3a2.21,2.21,0,0,0,2.17-1.79Z"/>
                        </g>
                    </g>
                </g>
            </g>
        </g>
    </g>
</svg>
