<svg width="100px" height="100px" viewBox="0 0 100 100" version="1.1" xmlns="http://www.w3.org/2000/svg" xmlns:xlink="http://www.w3.org/1999/xlink">
    <defs>
        <circle id="path-1" cx="50" cy="50" r="50"></circle>
        <path d="M-1.13686838e-13,8.16516634 L-1.13686838e-13,45.2231666 C-1.13686838e-13,46.5524398 1.06545967,47.630137 2.38031085,47.630137 L34.2506632,47.630137 C35.56417,47.630137 36.6296296,46.5524398 36.6296296,45.2231666 L36.6296296,2.40697042 C36.6296296,1.07769721 35.56417,0 34.2506632,0 L8.81824417,0 L-1.13686838e-13,8.16516634 Z" id="path-3"></path>
    </defs>
    <g id="Page-1" stroke="none" stroke-width="1" fill="none" fill-rule="evenodd">
        <g id="spotlight/-gjenstand-">
            <g id="spotlight/-element">
                <g id="-80/-Blå">
                    <mask id="mask-2" fill="white">
                        <use xlink:href="#path-1"></use>
                    </mask>
                    <g id="Mask"></g>
                    <g id="V⚙️/STYLING/farge/-Dyp-blå/-60" mask="url(#mask-2)" fill="#99BDCD">
                        <g id="⚙️/farge/-Blå/-60-Copy">
                            <polygon id="Fill-22" points="0 100 100 100 100 0 0 0"></polygon>
                        </g>
                    </g>
                </g>
            </g>
            <g id="dokumenter/-utklippstavlen" transform="translate(27.000000, 19.000000)">
                <g id="Group">
                    <path d="M43.01,5.01369863 L2.9882963,5.01369863 C1.33655556,5.01369863 -3.55271368e-15,6.33971219 -3.55271368e-15,7.97802684 L-3.55271368e-15,58.0365158 C-3.55271368e-15,58.3420645 0.0468518519,58.6391725 0.133740741,58.9160232 C0.279407407,59.3810987 0.53837037,59.7955306 0.877407407,60.1323094 C0.943,60.1964577 1.01455556,60.2631382 1.09037037,60.3222222 C1.53077778,60.6851667 2.08107407,60.9215027 2.68162963,60.9839629 C2.78385185,60.9940916 2.88607407,61 2.9882963,61 L43.01,61 C44.6617407,61 46,59.6722983 46,58.0365158 L46,7.97802684 C46,6.33971219 44.6617407,5.01369863 43.01,5.01369863" id="Fill-102" fill="#515658"></path>
                    <g transform="translate(4.259259, 9.191781)">
                        <g id="farger/-ark/-lys-grå">
                            <mask id="mask-4" fill="white">
                                <use xlink:href="#path-3"></use>
                            </mask>
                            <g id="Mask"></g>
                            <g id="V⚙️/farger/-ark/-hvit" mask="url(#mask-4)" fill="#FFFFFF">
                                <g transform="translate(-5.426612, -6.804305)">
                                    <rect x="0" y="0" width="47" height="61"></rect>
                                </g>
                            </g>
                        </g>
                        <path d="M8.81824417,0 L8.81824417,5.68656763 C8.81824417,7.05571168 7.68403034,8.16516634 6.28433176,8.16516634 L0,8.16516634 L8.81824417,0 Z" id="Fill-59" fill="#C9C9C9"></path>
                        <g id="V⚙️/-dokumenter/-innhold/-oppgaver" transform="translate(1.356653, 6.804305)">
                            <g id="Group" transform="translate(6.120000, 7.480000)">
                                <polygon id="Fill-118" fill="#A59D96" points="5.44 4.08 21.08 4.08 21.08 2.72 5.44 2.72"></polygon>
                                <polygon id="Fill-119" fill="#A59D96" points="5.44 8.84 21.08 8.84 21.08 7.48 5.44 7.48"></polygon>
                                <polygon id="Fill-120" fill="#A59D96" points="5.44 12.92 21.08 12.92 21.08 11.56 5.44 11.56"></polygon>
                                <polygon id="Fill-121" fill="#A59D96" points="5.44 17.68 21.08 17.68 21.08 16.32 5.44 16.32"></polygon>
                                <path d="M4.08,1.363128 L3.36042328,1.363128 L1.39957672,1.363128 L0.68,1.363128 L0.68,2.10581039 L0.68,4.02044561 L0.68,4.763128 L1.39957672,4.763128 L3.36042328,4.763128 L4.08,4.763128 L4.08,4.02044561 L4.08,2.10581039 L4.08,1.363128 Z M1.39957672,4.02044561 L3.36042328,4.02044561 L3.36042328,2.10581039 L1.39957672,2.10581039 L1.39957672,4.02044561 Z" id="Fill-122" fill="#A59D96"></path>
                                <path d="M4.08,6.008548 L3.36042328,6.008548 L1.39957672,6.008548 L0.68,6.008548 L0.68,6.75139266 L0.68,8.66570334 L0.68,9.408548 L1.39957672,9.408548 L3.36042328,9.408548 L4.08,9.408548 L4.08,8.66570334 L4.08,6.75139266 L4.08,6.008548 Z M1.39957672,8.66570334 L3.36042328,8.66570334 L3.36042328,6.75139266 L1.39957672,6.75139266 L1.39957672,8.66570334 Z" id="Fill-123" fill="#A59D96"></path>
                                <path d="M4.08,10.654036 L3.36042328,10.654036 L1.39957672,10.654036 L0.68,10.654036 L0.68,11.397043 L0.68,13.311029 L0.68,14.054036 L1.39957672,14.054036 L3.36042328,14.054036 L4.08,14.054036 L4.08,13.311029 L4.08,11.397043 L4.08,10.654036 Z M1.39957672,13.311029 L3.36042328,13.311029 L3.36042328,11.397043 L1.39957672,11.397043 L1.39957672,13.311029 Z" id="Fill-124" fill="#A59D96"></path>
                                <path d="M4.08,15.300136 L3.36042328,15.300136 L1.39957672,15.300136 L0.68,15.300136 L0.68,16.0429807 L0.68,17.9572913 L0.68,18.700136 L1.39957672,18.700136 L3.36042328,18.700136 L4.08,18.700136 L4.08,17.9572913 L4.08,16.0429807 L4.08,15.300136 Z M1.39957672,17.9572913 L3.36042328,17.9572913 L3.36042328,16.0429807 L1.39957672,16.0429807 L1.39957672,17.9572913 Z" id="Fill-125" fill="#A59D96"></path>
                                <polygon id="Stroke-126" fill="#2F3237" fill-rule="nonzero" points="1.7293435 2.56403572 3.24015945 0 4.08 0.855218566 1.77917166 4.76 0 2.08630031 0.799570643 1.1667937"></polygon>
                                <polygon id="Stroke-127" fill="#2F3237" fill-rule="nonzero" points="3.07074332 4.08 4.08 4.82663274 1.79910284 8.84 0 6.03688154 0.970480991 5.22608821 1.73893581 6.42339046"></polygon>
                            </g>
                        </g>
                    </g>
                    <path d="M23.4271696,6.92906314 C22.9064641,6.92906314 22.4852564,6.50211404 22.4852564,5.97222466 C22.4852564,5.44233527 22.9064641,5.01285486 23.4271696,5.01285486 C23.9453878,5.01285486 24.3682537,5.44233527 24.3682537,5.97222466 C24.3682537,6.50211404 23.9453878,6.92906314 23.4271696,6.92906314 M29.2419913,3.01142552 L25.7380078,3.01142552 L25.7380078,2.35243887 C25.7380078,1.05302859 24.7024008,0 23.4271696,0 C22.1477928,0 21.1146732,1.05302859 21.1146732,2.35243887 L21.1146732,3.01142552 L17.6106897,3.01142552 C15.8835724,3.01142552 14.4814815,4.43824551 14.4814815,6.19666825 L14.4814815,10.0273973 L32.3703704,10.0273973 L32.3703704,6.19666825 C32.3703704,4.43824551 30.9691086,3.01142552 29.2419913,3.01142552" id="Fill-105" fill="#2F3237"></path>
                </g>
            </g>
        </g>
    </g>
</svg>